<svg xmlns="http://www.w3.org/2000/svg" version="1.1" xmlns:xlink="http://www.w3.org/1999/xlink" xmlns:svgjs="http://svgjs.dev/svgjs" width="1000" height="750" viewBox="0 0 1000 750"><rect width="1000" height="750" fill="#ffffff"></rect><g transform="matrix(0.834,0,0,0.834,82.49454545454546,137.22129852707369)"><svg viewBox="0 0 396 226" data-background-color="#ffffff" preserveAspectRatio="xMidYMid meet" height="570" width="1000" xmlns="http://www.w3.org/2000/svg" xmlns:xlink="http://www.w3.org/1999/xlink"><g id="tight-bounds" transform="matrix(1,0,0,1,0.2400000000000091,0.042169491525413605)"><svg viewBox="0 0 395.52 225.91566101694917" height="225.91566101694917" width="395.52"><g><svg viewBox="0 0 395.52 225.91566101694917" height="225.91566101694917" width="395.52"><g><svg viewBox="0 0 395.52 225.91566101694917" height="225.91566101694917" width="395.52"><g id="textblocktransform"><svg viewBox="0 0 395.52 225.91566101694917" height="225.91566101694917" width="395.52" id="textblock"><g><svg viewBox="0 0 395.52 225.91566101694917" height="225.91566101694917" width="395.52"><g transform="matrix(1,0,0,1,0,0)"><svg width="395.52" viewBox="3.25 -33.70000076293945 59 33.70000076293945" height="225.91566101694917" data-palette-color="#0063db"><path d="M10.95-13.95L10.95 0 3.25 0 3.25-33.7 11.7-33.7 19.55-19.75Q21.2-16.8 22.43-14.23 23.65-11.65 24-10.6L24-10.6 24.4-9.5Q23.9-13.2 23.9-19.75L23.9-19.75 23.9-33.7 31.6-33.7 31.6 0 23.15 0 15.1-13.95Q13.5-16.65 12.28-19.28 11.05-21.9 10.6-23.15L10.6-23.15 10.2-24.4Q10.95-19.9 10.95-13.95L10.95-13.95ZM49.7-10.9L49.7-10.9 45.8-10.9 45.8 0 38.1 0 38.1-33.7 49.7-33.7Q55.3-33.7 58.77-30.55 62.25-27.4 62.25-22.55L62.25-22.55Q62.25-17 58.62-13.95 55-10.9 49.7-10.9ZM48.8-27.55L48.8-27.55 45.8-27.55 45.8-17 48.35-17Q54.45-17 54.45-22.55L54.45-22.55Q54.45-27.55 48.8-27.55Z" opacity="1" transform="matrix(1,0,0,1,0,0)" fill="#0063db" class="wordmark-text-0" data-fill-palette-color="primary" id="text-0"></path></svg></g></svg></g></svg></g></svg></g></svg></g><defs></defs></svg><rect width="395.52" height="225.91566101694917" fill="none" stroke="none" visibility="hidden"></rect></g></svg></g></svg>