<svg xmlns="http://www.w3.org/2000/svg" version="1.1" xmlns:xlink="http://www.w3.org/1999/xlink" xmlns:svgjs="http://svgjs.dev/svgjs" width="1000" height="623" viewBox="0 0 1000 623"><g transform="matrix(1,0,0,1,-0.6060606060606233,0.2522267206477409)"><svg viewBox="0 0 396 247" data-background-color="#ffffff" preserveAspectRatio="xMidYMid meet" height="623" width="1000" xmlns="http://www.w3.org/2000/svg" xmlns:xlink="http://www.w3.org/1999/xlink"><g id="tight-bounds" transform="matrix(1,0,0,1,0.2400000000000091,-0.09999999999999432)"><svg viewBox="0 0 395.52 247.2" height="247.2" width="395.52"><g><svg></svg></g><g><svg viewBox="0 0 395.52 247.2" height="247.2" width="395.52"><g transform="matrix(1,0,0,1,75.54432,57.59153126022915)"><svg viewBox="0 0 244.43135999999998 132.0169374795417" height="132.0169374795417" width="244.43135999999998"><g><svg viewBox="0 0 244.43135999999998 132.0169374795417" height="132.0169374795417" width="244.43135999999998"><g><svg viewBox="0 0 244.43135999999998 132.0169374795417" height="132.0169374795417" width="244.43135999999998"><g><svg viewBox="0 0 244.43135999999998 132.0169374795417" height="132.0169374795417" width="244.43135999999998"><g id="textblocktransform"><svg viewBox="0 0 244.43135999999998 132.0169374795417" height="132.0169374795417" width="244.43135999999998" id="textblock"><g><svg viewBox="0 0 244.43135999999998 132.0169374795417" height="132.0169374795417" width="244.43135999999998"><g transform="matrix(1,0,0,1,0,0)"><svg width="244.43135999999998" viewBox="4.900000095367432 -33 61.099998474121094 33" height="132.0169374795417" data-palette-color="url(#2e7fe149-b8a0-4c8b-80a1-d9f20df90a2b)"></svg></g></svg></g></svg></g></svg></g></svg></g></svg></g></svg></g></svg></g><defs></defs><mask id="c7729972-f8a3-4186-9ca9-eb927b5d8c98"><g id="SvgjsG1007"><svg viewBox="0 0 395.52 247.2" height="247.2" width="395.52"><g><svg></svg></g><g><svg viewBox="0 0 395.52 247.2" height="247.2" width="395.52"><g transform="matrix(1,0,0,1,75.54432,57.59153126022915)"><svg viewBox="0 0 244.43135999999998 132.0169374795417" height="132.0169374795417" width="244.43135999999998"><g><svg viewBox="0 0 244.43135999999998 132.0169374795417" height="132.0169374795417" width="244.43135999999998"><g><svg viewBox="0 0 244.43135999999998 132.0169374795417" height="132.0169374795417" width="244.43135999999998"><g><svg viewBox="0 0 244.43135999999998 132.0169374795417" height="132.0169374795417" width="244.43135999999998"><g id="SvgjsG1006"><svg viewBox="0 0 244.43135999999998 132.0169374795417" height="132.0169374795417" width="244.43135999999998" id="SvgjsSvg1005"><g><svg viewBox="0 0 244.43135999999998 132.0169374795417" height="132.0169374795417" width="244.43135999999998"><g transform="matrix(1,0,0,1,0,0)"><svg width="244.43135999999998" viewBox="4.900000095367432 -33 61.099998474121094 33" height="132.0169374795417" data-palette-color="url(#2e7fe149-b8a0-4c8b-80a1-d9f20df90a2b)"><path d="M27-33L31.95-33 31.95 0 25.6 0 12.85-20.8 9.65-26.65 9.6-26.65 9.8-21.3 9.8 0 4.9 0 4.9-33 11.2-33 23.9-12.25 27.15-6.3 27.2-6.3 27-11.7 27-33ZM41.7-33L54.4-33Q57.95-33 60.52-31.75 63.1-30.5 64.55-28.2 66-25.9 66-22.65L66-22.65Q66-19.45 64.55-17.13 63.1-14.8 60.52-13.55 57.95-12.3 54.4-12.3L54.4-12.3 47.05-12.3 47.05 0 41.7 0 41.7-33ZM47.05-16.9L53.55-16.9Q57.1-16.9 58.77-18.38 60.45-19.85 60.45-22.65L60.45-22.65Q60.45-25.5 58.77-26.98 57.1-28.45 53.55-28.45L53.55-28.45 47.05-28.45 47.05-16.9Z" opacity="1" transform="matrix(1,0,0,1,0,0)" fill="white" class="wordmark-text-0" id="SvgjsPath1004"></path></svg></g></svg></g></svg></g></svg></g></svg></g></svg></g></svg></g><path d="M148.906 51.592L148.906 5.858 384.39 5.858 384.39 241.342 148.906 241.342 148.906 195.608 160.812 195.608 160.812 229.437 372.485 229.437 372.485 17.763 160.812 17.763 160.812 51.592Z" fill="white" stroke="transparent"></path></svg></g><defs><mask></mask></defs></svg></g></mask><linearGradient x1="0" x2="1" y1="0.578" y2="0.595" id="2e7fe149-b8a0-4c8b-80a1-d9f20df90a2b"><stop stop-color="#6ee2f5" offset="0"></stop><stop stop-color="#6454f0" offset="1"></stop></linearGradient><rect width="395.5199890136719" height="247.1999969482422" fill="url(#2e7fe149-b8a0-4c8b-80a1-d9f20df90a2b)" mask="url(#c7729972-f8a3-4186-9ca9-eb927b5d8c98)" data-fill-palette-color="primary"></rect></svg><rect width="395.52" height="247.2" fill="none" stroke="none" visibility="hidden"></rect></g></svg></g></svg>